<?xml version="1.0" standalone="no"?>
<!DOCTYPE svg PUBLIC "-//W3C//DTD SVG 20010904//EN" "http://www.w3.org/TR/2001/REC-SVG-20010904/DTD/svg10.dtd">
<svg xmlns="http://www.w3.org/2000/svg" version="1.0" width="1024.000000pt" height="1024.000000pt" viewBox="0 0 1024.000000 1024.000000" preserveAspectRatio="xMidYMid meet">
<metadata>
Created by potrace 1.16, written by Peter Selinger 2001-2019
<meta name="Producer" content="Online-Convert"/></metadata>
<g transform="translate(0.000000,1024.000000) scale(0.100000,-0.100000)" fill="#000000" stroke="none">
<path d="M3790 8815 c-564 -90 -1024 -550 -1126 -1127 -21 -122 -21 -342 0 -473 19 -114 65 -270 107 -363 66 -146 247 -388 411 -549 133 -130 291 -253 538 -418 211 -141 696 -445 710 -445 12 0 4 54 -13 86 -31 61 -164 230 -262 334 -418 447 -624 747 -730 1062 -88 264 -88 560 0 783 58 147 95 206 190 300 105 104 211 172 342 218 83 30 96 32 233 32 171 -1 259 -20 405 -91 143 -70 396 -265 490 -377 l35 -42 117 115 c140 136 271 232 408 299 130 64 202 82 356 88 260 11 447 -60 619 -236 92 -94 162 -209 206 -338 42 -124 54 -199 54 -343 0 -445 -223 -862 -779 -1454 -108 -116 -239 -283 -273 -349 -10 -21 -18 -50 -16 -63 3 -24 14 -18 228 114 666 410 958 633 1188 907 236 282 352 562 369 895 31 598 -333 1154 -894 1366 -327 124 -766 105 -1068 -46 -127 -63 -241 -149 -396 -298 l-124 -119 -118 118 c-151 151 -254 229 -394 296 -234 113 -552 159 -813 118z"/>
<path d="M5061 7474 c-19 -24 -21 -40 -21 -151 0 -118 1 -125 25 -148 32 -33 74 -33 106 1 23 24 24 32 24 154 0 112 -2 131 -19 149 -29 32 -88 29 -115 -5z"/>
<path d="M4662 7387 c-32 -34 -27 -77 17 -166 57 -113 84 -141 132 -141 48 0 79 28 79 70 0 39 -92 223 -122 244 -33 23 -81 20 -106 -7z"/>
<path d="M5447 7378 c-35 -49 -97 -193 -97 -228 0 -57 66 -89 121 -59 30 16 131 228 124 259 -9 37 -42 60 -86 60 -31 0 -42 -6 -62 -32z"/>
<path d="M4442 7064 c-29 -20 -30 -76 -2 -104 31 -31 96 -60 134 -60 40 0 76 31 76 66 0 74 -145 143 -208 98z"/>
<path d="M4980 7014 c-168 -45 -290 -161 -340 -322 -24 -77 -27 -221 -6 -298 32 -120 128 -248 230 -308 201 -118 424 -92 595 70 117 110 168 241 158 404 -14 227 -155 398 -372 455 -73 19 -192 18 -265 -1z"/>
<path d="M2281 6644 c-41 -34 -46 -72 -32 -223 41 -430 126 -908 217 -1226 129 -448 327 -745 687 -1027 424 -334 494 -398 575 -521 59 -91 87 -169 103 -286 7 -47 16 -92 22 -98 7 -10 82 -13 313 -13 l304 0 15 24 c20 30 35 199 35 401 0 442 -79 752 -265 1030 -73 110 -161 203 -339 359 -191 168 -262 243 -409 433 -151 193 -190 225 -281 225 -44 0 -54 -4 -82 -35 -54 -59 -65 -128 -39 -252 29 -139 119 -288 344 -574 50 -63 88 -117 86 -119 -10 -10 -149 101 -254 203 -192 187 -322 381 -415 618 -26 65 -89 266 -141 447 -108 377 -130 436 -198 537 -79 118 -176 157 -246 97z"/>
<path d="M7807 6647 c-48 -29 -93 -86 -140 -174 -45 -87 -61 -133 -146 -443 -87 -315 -148 -496 -211 -621 -94 -189 -238 -375 -393 -510 -84 -73 -195 -154 -203 -147 -7 7 60 101 143 199 206 245 293 419 293 586 0 141 -68 209 -179 181 -58 -15 -140 -95 -268 -263 -125 -165 -190 -234 -377 -400 -183 -162 -252 -232 -320 -325 -150 -203 -231 -414 -272 -710 -13 -93 -15 -166 -10 -385 3 -148 10 -290 15 -313 16 -80 4 -77 342 -77 286 0 301 1 315 19 8 11 14 37 14 58 0 69 31 181 73 263 34 67 63 102 172 210 74 75 224 206 350 306 133 106 262 219 326 286 216 224 351 477 457 858 73 262 152 691 192 1040 24 213 25 286 6 324 -33 63 -111 79 -179 38z"/>
<path d="M6010 6530 c-41 -10 -71 -42 -160 -171 -163 -236 -398 -407 -618 -449 -290 -57 -623 135 -879 507 -62 90 -93 113 -150 113 -91 0 -128 -42 -128 -146 0 -83 23 -134 131 -295 97 -144 184 -247 385 -454 l77 -80 -23 -120 c-88 -449 -85 -836 11 -1340 38 -199 73 -255 170 -271 87 -13 160 32 184 114 6 20 15 96 20 167 20 284 42 455 62 481 26 33 46 30 62 -8 8 -18 23 -150 35 -293 32 -390 37 -409 112 -448 25 -13 48 -17 86 -13 115 10 147 60 192 301 55 289 65 397 65 680 0 261 -15 436 -58 659 l-14 70 97 100 c145 152 263 296 363 446 132 196 163 277 138 356 -25 77 -84 111 -160 94z"/>
<path d="M2123 2536 c-117 -29 -240 -123 -291 -221 -78 -154 -67 -340 28 -481 85 -127 211 -189 380 -187 110 1 179 21 265 79 230 152 258 494 58 692 -116 114 -276 157 -440 118z m208 -168 c51 -15 112 -68 147 -126 25 -43 27 -56 27 -147 0 -91 -2 -104 -27 -147 -53 -90 -140 -138 -247 -138 -54 0 -131 28 -171 62 -37 31 -71 89 -86 147 -35 139 30 287 150 342 47 22 148 25 207 7z"/>
<path d="M5640 2534 c-216 -58 -348 -269 -319 -508 41 -330 433 -493 724 -300 227 150 257 488 61 688 -114 117 -299 165 -466 120z m276 -189 c85 -50 133 -137 133 -246 2 -163 -96 -274 -254 -286 -88 -8 -156 17 -216 77 -130 130 -95 380 64 461 83 43 194 40 273 -6z"/>
<path d="M6545 2536 c-165 -52 -238 -198 -171 -342 40 -86 101 -123 304 -185 105 -32 143 -83 111 -153 -16 -34 -66 -56 -127 -56 -83 0 -137 34 -149 91 l-6 30 -86 -3 -86 -3 3 -40 c7 -89 60 -156 162 -204 48 -22 68 -25 155 -25 106 0 155 11 218 51 121 76 151 263 59 365 -49 55 -100 82 -221 117 -145 41 -190 80 -173 146 13 46 54 70 122 70 66 0 105 -21 128 -68 13 -26 16 -27 98 -27 l84 0 0 28 c0 42 -46 127 -87 158 -75 57 -239 81 -338 50z"/>
<path d="M8053 2531 c-139 -48 -208 -172 -169 -304 31 -106 95 -151 300 -212 104 -31 136 -57 136 -110 0 -73 -42 -105 -137 -105 -72 0 -117 25 -141 78 l-17 37 -84 0 -83 0 6 -49 c3 -28 18 -69 34 -95 70 -115 271 -162 436 -104 71 25 148 102 165 166 20 69 9 158 -24 208 -43 66 -98 95 -298 155 -113 34 -151 108 -87 169 27 26 39 30 89 30 65 0 103 -20 129 -66 17 -28 19 -29 100 -29 l82 0 0 33 c0 81 -82 172 -182 202 -70 20 -190 19 -255 -4z"/>
<path d="M2840 2091 l0 -441 90 0 90 0 0 155 0 155 58 0 57 0 90 -155 90 -155 103 0 c56 0 102 2 102 5 0 3 -45 77 -100 165 -55 88 -100 162 -100 164 0 2 14 9 30 16 45 19 115 102 130 154 16 59 9 171 -15 220 -25 52 -72 97 -131 127 -47 23 -59 24 -271 27 l-223 3 0 -440z m382 269 c55 -16 78 -51 78 -119 0 -101 -38 -129 -181 -132 l-94 -2 -3 132 -3 131 83 0 c46 0 100 -5 120 -10z"/>
<path d="M3660 2091 l0 -441 95 0 95 0 0 154 0 154 128 4 c105 3 135 7 177 26 60 28 99 63 128 117 30 55 32 211 3 268 -27 54 -72 96 -136 126 -53 25 -63 26 -272 29 l-218 4 0 -441z m408 255 c37 -19 52 -50 52 -107 0 -51 -21 -92 -57 -108 -15 -8 -70 -16 -120 -19 l-93 -5 0 133 0 133 93 -5 c59 -3 104 -11 125 -22z"/>
<path d="M4440 2090 l0 -440 90 0 90 0 0 185 0 185 180 0 180 0 0 -185 0 -185 90 0 90 0 0 440 0 440 -90 0 -90 0 0 -175 0 -175 -180 0 -180 0 0 175 0 175 -90 0 -90 0 0 -440z"/>
<path d="M7030 2526 c0 -2 70 -122 155 -266 l155 -261 0 -175 0 -174 90 0 90 0 0 179 0 180 154 260 154 261 -101 0 -102 0 -95 -170 c-52 -93 -98 -170 -101 -170 -4 0 -50 77 -103 170 l-97 170 -100 0 c-54 0 -99 -2 -99 -4z"/>
</g>
</svg>
